<svg xmlns="http://www.w3.org/2000/svg" viewBox="0 0 140 24.65"><defs><style>.cls-1{fill:#fff;}</style></defs><g id="レイヤー_2" data-name="レイヤー 2"><g id="header"><path class="cls-1" d="M12.8,0A21.38,21.38,0,0,0,4.38,1.69C2,2.78,0,4.51,0,7.4a5.81,5.81,0,0,0,1.61,4.09,8.94,8.94,0,0,0,4.79,2.4c1.31.29,4.15.73,7,1s5.57.58,6.68.86c.89.23,2.4.54,2.4,2.23a2.53,2.53,0,0,1-1.86,2.29,14,14,0,0,1-5.57,1,23.81,23.81,0,0,1-6.63-1.15,8.05,8.05,0,0,1-3.84-2.56,4.41,4.41,0,0,1-.79-2.43H.67v8.62H4.09V22.58a.49.49,0,0,1,.75-.42,27.27,27.27,0,0,0,5,1.61,21.14,21.14,0,0,0,5.19.65,22.58,22.58,0,0,0,7-1,12.16,12.16,0,0,0,4.13-2.05,5.67,5.67,0,0,0,2.21-4.54,6.45,6.45,0,0,0-1.77-4.46,7.86,7.86,0,0,0-2.24-1.5,14.78,14.78,0,0,0-2.71-1C19.85,9.51,15.87,9,14,8.77a51.31,51.31,0,0,1-6.84-.93A1.64,1.64,0,0,1,5.83,6.32,2.1,2.1,0,0,1,7,4.53a13.27,13.27,0,0,1,6.29-1.26,18.38,18.38,0,0,1,7.3,1.42,8.32,8.32,0,0,1,1.75,1A5.34,5.34,0,0,1,24,8.59H26.8V1.09H23.71V2c0,.29-.29.65-.83.35A23.5,23.5,0,0,0,12.8,0Z"/><path class="cls-1" d="M72,4.11h-2.4V1.38H80.43L95.48,15l-.17-9.13c0-1.21-.22-1.71-1.52-1.71H91V1.38h12.86V4.11h-2.75c-1.34,0-1.42.43-1.44,1.71l.25,17.47H95.46L78.14,7.82v11c0,1.2.06,1.75,1.29,1.75h3.1v2.74H69.89V20.55h2.94c1.11,0,1.07-1.05,1.07-1.81V5.92C73.9,5.09,73.77,4.11,72,4.11Z"/><path class="cls-1" d="M130.87,20.54v2.74h-15V20.54h2.68a6.23,6.23,0,0,0,.76,0,.91.91,0,0,0,.59-.52,3.05,3.05,0,0,0,.06-.6V15.06c0-.11,0-.15-.19-.38s-7.88-9-8.23-9.35a3.15,3.15,0,0,0-2.36-1.22h-2.67V1.38h15.07V4.11h-1.81c-.41,0-.7.4-.33.85,0,0,5.07,6.07,5.11,6.13s.1.09.16,0S129.88,5,129.93,5a.53.53,0,0,0-.44-.85h-1.88V1.38H140V4.11h-2.77a2.37,2.37,0,0,0-2.17,1c-.33.4-8.11,9.26-8.32,9.51a.53.53,0,0,0-.1.4v4.32a3.21,3.21,0,0,0,.06.6.92.92,0,0,0,.58.52,6.39,6.39,0,0,0,.75,0Z"/><path class="cls-1" d="M49.86,24.65c-5.07,0-9.78-1.52-12.91-4.34a10.58,10.58,0,0,1-3.53-8,10.79,10.79,0,0,1,3.53-8C39.87,1.67,45,0,49.86,0c5.38,0,9.67,1.36,13,4.34a10.63,10.63,0,0,1,3.46,8,11.16,11.16,0,0,1-3.46,8C59.76,23.15,55,24.65,49.86,24.65Zm0-3.26a9.72,9.72,0,0,0,6.94-2.66,8.6,8.6,0,0,0,2.54-6.42A9,9,0,0,0,56.8,5.86a10.43,10.43,0,0,0-13.89,0,9,9,0,0,0-2.52,6.45,9,9,0,0,0,2.52,6.42A9.86,9.86,0,0,0,49.86,21.39Z"/></g></g></svg>